<svg width="23.000000" height="23.000000" viewBox="0 0 23 23" fill="none" xmlns="http://www.w3.org/2000/svg" xmlns:xlink="http://www.w3.org/1999/xlink">
	<desc>
			Created with Pixso.
	</desc>
	<defs/>
	<rect id="cart-icon" width="23.000000" height="23.000000" fill="#D3D1D8" fill-opacity="0"/>
	<path id="Path 3414" d="M20.2526 11.0968C20.1738 10.4166 19.8484 9.78552 19.3345 9.3158C18.8206 8.84607 18.1515 8.56824 17.446 8.53162L17.446 8.33167C17.4466 7.7627 17.3312 7.19934 17.1063 6.67383C16.8815 6.14819 16.5517 5.67078 16.1359 5.26917C15.7209 4.86621 15.2278 4.54675 14.6851 4.32898C14.1423 4.11108 13.5605 3.99939 12.973 4C11.7871 4.00037 10.6499 4.45703 9.81136 5.26941C8.97278 6.08179 8.50151 7.18359 8.50107 8.33252L8.50107 8.53467C7.80495 8.58264 7.14803 8.86536 6.6447 9.33374C6.14137 9.802 5.82347 10.4264 5.74599 11.0984L5 17.682C5.00368 18.5647 5.3688 19.41 6.01524 20.0321C6.66168 20.6542 7.53674 21.0023 8.44791 21L17.5523 21C18.4635 21.0023 19.3383 20.6542 19.9848 20.0321C20.6312 19.41 20.9963 18.5647 21 17.682L20.2526 11.0968ZM9.81435 8.3396C9.81424 7.93774 9.89577 7.53979 10.0544 7.16858C10.2131 6.79724 10.4458 6.45996 10.739 6.17578C11.0323 5.8916 11.3803 5.66614 11.7635 5.51233C12.1467 5.35852 12.5574 5.27942 12.9722 5.27942C13.3871 5.27905 13.7979 5.35803 14.1812 5.51184C14.5644 5.66565 14.9127 5.89124 15.2058 6.17566C15.4996 6.45959 15.7325 6.79688 15.8914 7.16821C16.0503 7.53955 16.132 7.93762 16.1317 8.3396L16.1317 8.52515L9.81435 8.52515L9.81435 8.3396ZM10.4374 12.8403C10.3332 12.8405 10.2299 12.8206 10.1336 12.782C10.0373 12.7434 9.94981 12.6868 9.87611 12.6154C9.80243 12.5439 9.74405 12.4592 9.70421 12.366C9.66438 12.2726 9.64394 12.1726 9.64404 12.0717C9.64394 11.9707 9.66438 11.8707 9.70421 11.7775C9.74405 11.6841 9.80243 11.5992 9.87611 11.528C9.94981 11.4565 10.0373 11.3999 10.1336 11.3613C10.2299 11.3228 10.3332 11.303 10.4374 11.3031C10.5418 11.3029 10.6451 11.3225 10.7416 11.3611C10.8381 11.3995 10.9258 11.4562 10.9997 11.5275C11.0736 11.5989 11.1323 11.6837 11.1724 11.777C11.2125 11.8704 11.2331 11.9706 11.2332 12.0717C11.2331 12.1727 11.2125 12.2728 11.1724 12.3662C11.1323 12.4596 11.0736 12.5443 10.9997 12.6157C10.9258 12.6871 10.8381 12.7437 10.7416 12.7822C10.6451 12.8207 10.5418 12.8405 10.4374 12.8403ZM15.5644 12.8403C15.46 12.8405 15.3566 12.8207 15.2602 12.7822C15.1637 12.7437 15.076 12.6871 15.0021 12.6157C14.9282 12.5443 14.8695 12.4596 14.8294 12.3662C14.7893 12.2728 14.7687 12.1727 14.7686 12.0717C14.7687 11.9706 14.7893 11.8704 14.8294 11.777C14.8695 11.6837 14.9282 11.5989 15.0021 11.5275C15.076 11.4562 15.1637 11.3995 15.2602 11.3611C15.3566 11.3225 15.46 11.3029 15.5644 11.3031C15.6686 11.303 15.7717 11.3228 15.868 11.3613C15.9643 11.3999 16.052 11.4565 16.1257 11.528C16.1994 11.5992 16.2578 11.6841 16.2976 11.7775C16.3374 11.8707 16.3579 11.9707 16.3577 12.0717C16.3579 12.1726 16.3374 12.2726 16.2976 12.366C16.2578 12.4592 16.1994 12.5439 16.1257 12.6154C16.052 12.6868 15.9643 12.7434 15.868 12.782C15.7717 12.8206 15.6686 12.8405 15.5644 12.8403Z" fill="#D5D5D9" fill-opacity="1.000000" fill-rule="nonzero"/>
	<circle id="Ellipse 138" cx="10.500000" cy="12.500000" r="1.500000" fill="#9796A1" fill-opacity="1.000000"/>
	<circle id="Ellipse 139" cx="15.500000" cy="12.500000" r="1.500000" fill="#9796A1" fill-opacity="1.000000"/>
</svg>
