<svg width="420.000000" height="373.690552" viewBox="0 0 420 373.691" fill="none" xmlns="http://www.w3.org/2000/svg" xmlns:xlink="http://www.w3.org/1999/xlink">
	<desc>
			Created with Pixso.
	</desc>
	<defs>
		<filter id="filter_1_438_dd" x="0.000000" y="27.611206" width="189.079346" height="266.865112" filterUnits="userSpaceOnUse" color-interpolation-filters="sRGB">
			<feFlood flood-opacity="0" result="BackgroundImageFix"/>
			<feColorMatrix in="SourceAlpha" type="matrix" values="0 0 0 0 0 0 0 0 0 0 0 0 0 0 0 0 0 0 127 0" result="hardAlpha"/>
			<feOffset dx="-2" dy="9"/>
			<feGaussianBlur stdDeviation="11.6667"/>
			<feComposite in2="hardAlpha" operator="out" k2="-1" k3="1"/>
			<feColorMatrix type="matrix" values="0 0 0 0 1 0 0 0 0 0.77255 0 0 0 0 0.16078 0 0 0 0.25 0"/>
			<feBlend mode="normal" in2="BackgroundImageFix" result="effect_dropShadow_1"/>
			<feBlend mode="normal" in="SourceGraphic" in2="effect_dropShadow_1" result="shape"/>
		</filter>
		<filter id="filter_1_439_dd" x="152.904785" y="0.000000" width="267.095215" height="373.690552" filterUnits="userSpaceOnUse" color-interpolation-filters="sRGB">
			<feFlood flood-opacity="0" result="BackgroundImageFix"/>
			<feColorMatrix in="SourceAlpha" type="matrix" values="0 0 0 0 0 0 0 0 0 0 0 0 0 0 0 0 0 0 127 0" result="hardAlpha"/>
			<feOffset dx="-30" dy="30"/>
			<feGaussianBlur stdDeviation="16.6667"/>
			<feComposite in2="hardAlpha" operator="out" k2="-1" k3="1"/>
			<feColorMatrix type="matrix" values="0 0 0 0 0.99608 0 0 0 0 0.44706 0 0 0 0 0.29804 0 0 0 0.2 0"/>
			<feBlend mode="normal" in2="BackgroundImageFix" result="effect_dropShadow_1"/>
			<feBlend mode="normal" in="SourceGraphic" in2="effect_dropShadow_1" result="shape"/>
		</filter>
	</defs>
	<path id="Vector" d="M227.143 152.524C227.143 177.982 206.505 198.619 181.048 198.619C155.59 198.619 134.952 177.982 134.952 152.524C134.952 127.066 155.59 106.429 181.048 106.429C206.505 106.429 227.143 127.066 227.143 152.524Z" fill="#FFE2DA" fill-opacity="1.000000" fill-rule="evenodd"/>
	<g filter="url(#filter_1_438_dd)">
		<path id="Vector" d="M156.079 250.476L156.079 173.084C156.079 107.109 102.758 53.6112 37 53.6112L37 131.004C37 196.978 90.3218 250.476 156.079 250.476Z" fill="#FFC529" fill-opacity="1.000000" fill-rule="nonzero"/>
	</g>
	<g filter="url(#filter_1_439_dd)">
		<path id="Vector" d="M232.905 293.691L232.905 186.067C232.905 94.348 307.713 20 400 20L400 127.623C400 219.342 325.192 293.691 232.905 293.691Z" fill="#FE724C" fill-opacity="1.000000" fill-rule="nonzero"/>
	</g>
</svg>
