<svg width="23.000000" height="23.000000" viewBox="0 0 23 23" fill="none" xmlns="http://www.w3.org/2000/svg" xmlns:xlink="http://www.w3.org/1999/xlink">
	<desc>
			Created with Pixso.
	</desc>
	<defs/>
	<rect id="menu-icon" width="23.000000" height="23.000000" fill="#D3D1D8" fill-opacity="0"/>
	<g opacity="0.400000">
		<path id="Path" d="M15.5164 1.91663L7.48459 1.91663C4.57124 1.91663 2.875 3.62244 2.875 6.54541L2.875 16.4449C2.875 19.4158 4.57124 21.0833 7.48459 21.0833L15.5164 21.0833C18.4767 21.0833 20.125 19.4158 20.125 16.4449L20.125 6.54541C20.125 3.62244 18.4767 1.91663 15.5164 1.91663Z" fill="#9796A1" fill-opacity="1.000000" fill-rule="nonzero"/>
	</g>
	<path id="Combined Shape" d="M7.74303 6.3728L7.74303 6.38245C7.32999 6.38245 6.99553 6.71777 6.99553 7.12988C6.99553 7.54199 7.32999 7.87744 7.74303 7.87744L10.6075 7.87744C11.0205 7.87744 11.3559 7.54199 11.3559 7.11938C11.3559 6.70825 11.0205 6.3728 10.6075 6.3728L7.74303 6.3728ZM15.2564 12.2091L7.74303 12.2091C7.32999 12.2091 6.99553 11.8737 6.99553 11.4615C6.99553 11.0496 7.32999 10.7131 7.74303 10.7131L15.2564 10.7131C15.6684 10.7131 16.0039 11.0496 16.0039 11.4615C16.0039 11.8737 15.6684 12.2091 15.2564 12.2091ZM15.2565 16.5886L7.74318 16.5886C7.45567 16.627 7.17775 16.4832 7.02443 16.2435C6.87109 15.9944 6.87109 15.6782 7.02443 15.4386C7.17775 15.1895 7.45567 15.0553 7.74318 15.084L15.2565 15.084C15.6389 15.1223 15.9273 15.4481 15.9273 15.8411C15.9273 16.2235 15.6389 16.5503 15.2565 16.5886Z" clip-rule="evenodd" fill="#9796A1" fill-opacity="1.000000" fill-rule="evenodd"/>
</svg>
