<svg width="16.000000" height="17.000000" viewBox="0 0 16 17" fill="none" xmlns="http://www.w3.org/2000/svg" xmlns:xlink="http://www.w3.org/1999/xlink">
	<desc>
			Created with Pixso.
	</desc>
	<defs/>
	<path id="Path 3414" d="M15.2526 7.0968C15.1738 6.41663 14.8484 5.78552 14.3345 5.3158C13.8206 4.84607 13.1515 4.56824 12.446 4.53162L12.446 4.33167C12.4467 3.7627 12.3311 3.19934 12.1064 2.67383C11.8815 2.14819 11.5518 1.67078 11.1359 1.26917C10.7209 0.866211 10.2278 0.546753 9.68506 0.328979C9.1423 0.111084 8.56049 -0.000610352 7.97302 0C6.78711 0.000366211 5.64993 0.457031 4.81134 1.26941C3.97278 2.08179 3.5015 3.18359 3.50107 4.33252L3.50107 4.53467C2.80496 4.58264 2.14801 4.86536 1.64468 5.33374C1.14136 5.802 0.823486 6.42639 0.746002 7.09839L0 13.682C0.00369263 14.5647 0.368805 15.41 1.01523 16.0321C1.66168 16.6542 2.53674 17.0023 3.44791 17L12.5523 17C13.4635 17.0023 14.3383 16.6542 14.9848 16.0321C15.6312 15.41 15.9963 14.5647 16 13.682L15.2526 7.0968ZM4.81436 4.3396C4.81424 3.93774 4.89578 3.53979 5.05441 3.16858C5.21307 2.79724 5.4458 2.45996 5.73904 2.17578C6.03229 1.8916 6.38028 1.66614 6.76349 1.51233C7.14667 1.35852 7.55743 1.27942 7.97223 1.27942C8.38708 1.27905 8.79785 1.35803 9.18115 1.51184C9.56445 1.66565 9.91272 1.89124 10.2058 2.17566C10.4996 2.45959 10.7325 2.79688 10.8914 3.16821C11.0503 3.53955 11.132 3.93762 11.1317 4.3396L11.1317 4.52515L4.81436 4.52515L4.81436 4.3396ZM5.43741 8.84033C5.33319 8.84045 5.22989 8.82056 5.13358 8.78198C5.03726 8.74341 4.9498 8.68677 4.87613 8.61536C4.80243 8.54395 4.74405 8.45923 4.70422 8.36597C4.66437 8.27258 4.64395 8.17261 4.64404 8.07166C4.64395 7.9707 4.66437 7.87073 4.70422 7.77747C4.74405 7.68408 4.80243 7.59924 4.87613 7.52795C4.9498 7.45654 5.03726 7.3999 5.13358 7.36133C5.22989 7.32275 5.33319 7.30298 5.43741 7.3031C5.54178 7.30286 5.64514 7.32251 5.74164 7.36108C5.83813 7.39954 5.92578 7.45618 5.99969 7.52747C6.07361 7.59888 6.13235 7.68372 6.17239 7.77698C6.21246 7.87036 6.23306 7.97058 6.23318 8.07166C6.23306 8.17273 6.21246 8.27283 6.17239 8.36621C6.13235 8.45959 6.07361 8.54431 5.99969 8.61572C5.92578 8.68713 5.83813 8.74365 5.74164 8.78223C5.64514 8.82068 5.54178 8.84045 5.43741 8.84033ZM10.5644 8.84033C10.46 8.84045 10.3567 8.82068 10.2602 8.78223C10.1637 8.74365 10.076 8.68713 10.0021 8.61572C9.92819 8.54431 9.86945 8.45959 9.82941 8.36621C9.78934 8.27283 9.76874 8.17273 9.76862 8.07166C9.76874 7.97058 9.78934 7.87036 9.82941 7.77698C9.86945 7.68372 9.92819 7.59888 10.0021 7.52747C10.076 7.45618 10.1637 7.39954 10.2602 7.36108C10.3567 7.32251 10.46 7.30286 10.5644 7.3031C10.6686 7.30298 10.7717 7.32275 10.868 7.36133C10.9643 7.3999 11.052 7.45654 11.1257 7.52795C11.1994 7.59924 11.2578 7.68408 11.2976 7.77747C11.3374 7.87073 11.3578 7.9707 11.3578 8.07166C11.3578 8.17261 11.3374 8.27258 11.2976 8.36597C11.2578 8.45923 11.1994 8.54395 11.1257 8.61536C11.052 8.68677 10.9643 8.74341 10.868 8.78198C10.7717 8.82056 10.6686 8.84045 10.5644 8.84033Z" fill="#FFFFFF" fill-opacity="1.000000" fill-rule="nonzero"/>
</svg>
