<svg width="19.645836" height="15.333344" viewBox="0 0 19.6458 15.3333" fill="none" xmlns="http://www.w3.org/2000/svg" xmlns:xlink="http://www.w3.org/1999/xlink">
	<desc>
			Created with Pixso.
	</desc>
	<defs/>
	<path id="Vector" d="M0 0L0 1.4375C0 5.41458 2.11792 8.89334 5.27084 10.8292L5.27084 15.3333L19.6458 15.3333L19.6458 13.4167C19.6458 10.8675 14.5379 9.58334 11.9792 9.58334L11.7396 9.58334C7.1875 9.58334 3.35417 5.75 3.35417 1.4375L3.35417 0L0 0ZM11.9792 0C10.9625 0 9.98748 0.40387 9.26859 1.12277C8.5497 1.84164 8.14584 2.81668 8.14584 3.83334C8.14584 4.85001 8.5497 5.82501 9.26859 6.54391C9.98748 7.26279 10.9625 7.66666 11.9792 7.66666C12.9958 7.66666 13.9709 7.26279 14.6897 6.54391C15.4086 5.82501 15.8125 4.85001 15.8125 3.83334C15.8125 2.81668 15.4086 1.84164 14.6897 1.12277C13.9709 0.40387 12.9958 0 11.9792 0Z" fill="#9796A1" fill-opacity="1.000000" fill-rule="nonzero"/>
</svg>
